<svg width="56" height="56" viewBox="0 0 56 56" fill="none" xmlns="http://www.w3.org/2000/svg">
	<rect width="56" height="56" rx="16" fill="#FB6D3A"/>
	<path d="M37 18H19C18.7348 18 18.4804 18.1054 18.2929 18.2929C18.1054 18.4804 18 18.7348 18 19V37C18 37.2652 18.1054 37.5196 18.2929 37.7071C18.4804 37.8946 18.7348 38 19 38H37C37.2652 38 37.5196 37.8946 37.7071 37.7071C37.8946 37.5196 38 37.2652 38 37V19C38 18.7348 37.8946 18.4804 37.7071 18.2929C37.5196 18.1054 37.2652 18 37 18ZM24 36H20V32H24V36ZM24 30H20V26H24V30ZM24 24H20V20H24V24ZM30 36H26V32H30V36ZM30 30H26V26H30V30ZM30 24H26V20H30V24ZM36 36H32V32H36V36ZM36 30H32V26H36V30ZM36 24H32V20H36V24Z" fill="white"/>
</svg>