<svg width="86" height="86" viewBox="0 0 86 86" fill="none" xmlns="http://www.w3.org/2000/svg">
  <path fill-rule="evenodd" clip-rule="evenodd" d="M86 43C86 66.7482 66.7482 86 43 86C19.2518 86 0 66.7482 0 43C0 19.2518 19.2518 0 43 0C66.7482 0 86 19.2518 86 43ZM7.81818 43C7.81818 62.4304 23.5696 78.1818 43 78.1818C62.4304 78.1818 78.1818 62.4304 78.1818 43C78.1818 23.5696 62.4304 7.81818 43 7.81818C23.5696 7.81818 7.81818 23.5696 7.81818 43ZM27.3636 62.5455V23.4546C27.3636 20.3843 30.7409 18.5124 33.3445 20.1397L64.6173 39.6851C67.067 41.2162 67.067 44.7839 64.6173 46.3149L33.3445 65.8604C30.7409 67.4877 27.3636 65.6158 27.3636 62.5455ZM35.1818 30.5076L55.1698 43L35.1818 55.4925V30.5076Z" fill="#FF9735"/>
</svg>