<svg width="56" height="56" viewBox="0 0 56 56" fill="none" xmlns="http://www.w3.org/2000/svg">
	<rect width="56" height="56" rx="16" fill="#FB6D3A"/>
	<path d="M38 23.24C38.0008 23.1084 37.9756 22.9779 37.9258 22.8561C37.876 22.7343 37.8027 22.6234 37.71 22.53L33.47 18.29C33.3766 18.1973 33.2658 18.124 33.1439 18.0742C33.0221 18.0245 32.8916 17.9992 32.76 18C32.6284 17.9992 32.4979 18.0245 32.3761 18.0742C32.2543 18.124 32.1435 18.1973 32.05 18.29L29.22 21.12L18.29 32.05C18.1973 32.1434 18.124 32.2543 18.0742 32.3761C18.0245 32.4979 17.9993 32.6284 18 32.76V37C18 37.2652 18.1054 37.5196 18.2929 37.7071C18.4804 37.8946 18.7348 38 19 38H23.24C23.3799 38.0076 23.5199 37.9857 23.6508 37.9358C23.7818 37.8858 23.9007 37.8089 24 37.71L34.87 26.78L37.71 24C37.8013 23.9031 37.8757 23.7915 37.93 23.67C37.9397 23.5903 37.9397 23.5097 37.93 23.43C37.9347 23.3835 37.9347 23.3366 37.93 23.29L38 23.24ZM22.83 36H20V33.17L29.93 23.24L32.76 26.07L22.83 36ZM34.17 24.66L31.34 21.83L32.76 20.42L35.58 23.24L34.17 24.66Z" fill="white"/>
</svg>
